<?xml version="1.0" encoding="UTF-8"?>
<svg id="Layer_2" data-name="Layer 2" xmlns="http://www.w3.org/2000/svg" xmlns:xlink="http://www.w3.org/1999/xlink" viewBox="0 0 1331.49 130.36">
  <defs>
    <style>
      .cls-1 {
        clip-path: url(#clippath);
      }

      .cls-2 {
        fill: none;
      }

      .cls-2, .cls-3, .cls-4, .cls-5, .cls-6, .cls-7, .cls-8, .cls-9, .cls-10, .cls-11, .cls-12, .cls-13, .cls-14, .cls-15, .cls-16 {
        stroke-width: 0px;
      }

      .cls-3 {
        fill: url(#linear-gradient);
      }

      .cls-4 {
        fill: url(#radial-gradient);
      }

      .cls-5 {
        fill: #420000;
        isolation: isolate;
        opacity: .12;
      }

      .cls-17 {
        clip-path: url(#clippath-1);
      }

      .cls-18 {
        clip-path: url(#clippath-3);
      }

      .cls-19 {
        clip-path: url(#clippath-2);
      }

      .cls-6 {
        fill: url(#radial-gradient-2);
      }

      .cls-8 {
        fill: #1ab7ea;
      }

      .cls-9 {
        fill: #1977f3;
      }

      .cls-10 {
        fill: #34a853;
      }

      .cls-11 {
        fill: #4285f4;
      }

      .cls-12 {
        fill: #fff;
      }

      .cls-13 {
        fill: #e60023;
      }

      .cls-14 {
        fill: #fbbc05;
      }

      .cls-15 {
        fill: #ea4335;
      }

      .cls-16 {
        fill-rule: evenodd;
      }
    </style>
    <radialGradient id="radial-gradient" cx="20.01" cy="76.19" fx="20.01" fy="76.19" r="65" gradientTransform="translate(175.03 179.81) rotate(-90) scale(1.98 -1.84)" gradientUnits="userSpaceOnUse">
      <stop offset="0" stop-color="#fd5"/>
      <stop offset=".1" stop-color="#fd5"/>
      <stop offset=".5" stop-color="#ff543e"/>
      <stop offset="1" stop-color="#c837ab"/>
    </radialGradient>
    <radialGradient id="radial-gradient-2" cx="118.88" cy="267.81" fx="118.88" fy="267.81" r="65" gradientTransform="translate(-1001.69 98.31) rotate(78.68) scale(.89 -3.65)" gradientUnits="userSpaceOnUse">
      <stop offset="0" stop-color="#3771c8"/>
      <stop offset=".13" stop-color="#3771c8"/>
      <stop offset="1" stop-color="#60f" stop-opacity="0"/>
    </radialGradient>
    <clipPath id="clippath">
      <path class="cls-2" d="m455.11,53.33h-60.74v25.18h34.96c-3.26,16-16.89,25.18-34.96,25.18-21.33,0-38.52-17.18-38.52-38.52s17.18-38.52,38.52-38.52c9.18,0,17.48,3.26,24,8.59l18.96-18.96c-11.55-10.07-26.37-16.3-42.96-16.3-36.15,0-65.18,29.04-65.18,65.18s29.04,65.18,65.18,65.18c32.59,0,62.22-23.7,62.22-65.18,0-3.85-.59-8-1.48-11.85Z"/>
    </clipPath>
    <clipPath id="clippath-1">
      <path class="cls-2" d="m455.11,53.33h-60.74v25.18h34.96c-3.26,16-16.89,25.18-34.96,25.18-21.33,0-38.52-17.18-38.52-38.52s17.18-38.52,38.52-38.52c9.18,0,17.48,3.26,24,8.59l18.96-18.96c-11.55-10.07-26.37-16.3-42.96-16.3-36.15,0-65.18,29.04-65.18,65.18s29.04,65.18,65.18,65.18c32.59,0,62.22-23.7,62.22-65.18,0-3.85-.59-8-1.48-11.85Z"/>
    </clipPath>
    <clipPath id="clippath-2">
      <path class="cls-2" d="m455.11,53.33h-60.74v25.18h34.96c-3.26,16-16.89,25.18-34.96,25.18-21.33,0-38.52-17.18-38.52-38.52s17.18-38.52,38.52-38.52c9.18,0,17.48,3.26,24,8.59l18.96-18.96c-11.55-10.07-26.37-16.3-42.96-16.3-36.15,0-65.18,29.04-65.18,65.18s29.04,65.18,65.18,65.18c32.59,0,62.22-23.7,62.22-65.18,0-3.85-.59-8-1.48-11.85Z"/>
    </clipPath>
    <clipPath id="clippath-3">
      <path class="cls-2" d="m455.11,53.33h-60.74v25.18h34.96c-3.26,16-16.89,25.18-34.96,25.18-21.33,0-38.52-17.18-38.52-38.52s17.18-38.52,38.52-38.52c9.18,0,17.48,3.26,24,8.59l18.96-18.96c-11.55-10.07-26.37-16.3-42.96-16.3-36.15,0-65.18,29.04-65.18,65.18s29.04,65.18,65.18,65.18c32.59,0,62.22-23.7,62.22-65.18,0-3.85-.59-8-1.48-11.85Z"/>
    </clipPath>
    <linearGradient id="linear-gradient" x1="582.64" y1="47.36" x2="582.64" y2="176.04" gradientTransform="translate(0 -47)" gradientUnits="userSpaceOnUse">
      <stop offset="0" stop-color="#e52d27"/>
      <stop offset="1" stop-color="#bf171d"/>
    </linearGradient>
  </defs>
  <g id="Layer_1-2" data-name="Layer 1">
    <g>
      <path class="cls-4" d="m65.03.15c-27.14,0-35.08.03-36.62.16-5.57.46-9.04,1.34-12.81,3.22-2.91,1.45-5.2,3.12-7.47,5.47C4,13.27,1.5,18.54.6,24.8.16,27.84.03,28.46,0,43.99,0,49.17,0,55.98,0,65.12,0,92.24.03,100.17.16,101.71c.45,5.42,1.3,8.83,3.1,12.56,3.44,7.14,10.01,12.5,17.75,14.5,2.68.69,5.64,1.07,9.44,1.25,1.61.07,18.02.12,34.44.12s32.84-.02,34.41-.1c4.4-.21,6.96-.55,9.78-1.28,7.79-2.01,14.24-7.29,17.75-14.53,1.76-3.64,2.66-7.18,3.07-12.32.09-1.12.12-18.98.12-36.81s-.04-35.66-.13-36.78c-.41-5.22-1.3-8.73-3.13-12.44-1.5-3.04-3.15-5.3-5.57-7.62-4.3-4.11-9.56-6.61-15.83-7.51-3.04-.44-3.64-.57-19.18-.6h-21.16Z"/>
      <path class="cls-6" d="m65.03.15c-27.14,0-35.08.03-36.62.16-5.57.46-9.04,1.34-12.81,3.22-2.91,1.45-5.2,3.12-7.47,5.47C4,13.27,1.5,18.54.6,24.8.16,27.84.03,28.46,0,43.99,0,49.17,0,55.98,0,65.12,0,92.24.03,100.17.16,101.71c.45,5.42,1.3,8.83,3.1,12.56,3.44,7.14,10.01,12.5,17.75,14.5,2.68.69,5.64,1.07,9.44,1.25,1.61.07,18.02.12,34.44.12s32.84-.02,34.41-.1c4.4-.21,6.96-.55,9.78-1.28,7.79-2.01,14.24-7.29,17.75-14.53,1.76-3.64,2.66-7.18,3.07-12.32.09-1.12.12-18.98.12-36.81s-.04-35.66-.13-36.78c-.41-5.22-1.3-8.73-3.13-12.44-1.5-3.04-3.15-5.3-5.57-7.62-4.3-4.11-9.56-6.61-15.83-7.51-3.04-.44-3.64-.57-19.18-.6h-21.16Z"/>
      <path class="cls-12" d="m65,17.15c-13.04,0-14.67.06-19.79.29-5.11.23-8.6,1.04-11.65,2.23-3.16,1.23-5.83,2.87-8.5,5.53-2.67,2.67-4.31,5.35-5.54,8.5-1.19,3.05-2,6.54-2.23,11.65-.23,5.12-.29,6.76-.29,19.79s.06,14.67.29,19.79c.24,5.11,1.04,8.6,2.23,11.65,1.23,3.16,2.87,5.83,5.54,8.5,2.67,2.67,5.34,4.31,8.5,5.54,3.05,1.19,6.54,2,11.65,2.23,5.12.23,6.76.29,19.79.29s14.67-.06,19.79-.29c5.11-.23,8.6-1.04,11.66-2.23,3.16-1.23,5.83-2.87,8.5-5.54,2.67-2.67,4.31-5.35,5.54-8.5,1.18-3.05,1.99-6.54,2.23-11.65.23-5.12.29-6.75.29-19.79s-.06-14.67-.29-19.79c-.24-5.11-1.05-8.6-2.23-11.65-1.23-3.16-2.87-5.83-5.54-8.5-2.67-2.67-5.34-4.31-8.5-5.53-3.06-1.19-6.55-2-11.66-2.23-5.12-.23-6.75-.29-19.79-.29h.01Zm-4.31,8.65c1.28,0,2.7,0,4.31,0,12.82,0,14.33.05,19.4.28,4.68.21,7.22,1,8.91,1.65,2.24.87,3.84,1.91,5.52,3.59,1.68,1.68,2.72,3.28,3.59,5.52.66,1.69,1.44,4.23,1.65,8.91.23,5.06.28,6.58.28,19.39s-.05,14.33-.28,19.39c-.21,4.68-1,7.22-1.65,8.91-.87,2.24-1.91,3.83-3.59,5.51-1.68,1.68-3.28,2.72-5.52,3.59-1.69.66-4.23,1.44-8.91,1.65-5.06.23-6.58.28-19.4.28s-14.34-.05-19.4-.28c-4.68-.22-7.22-1-8.91-1.65-2.24-.87-3.84-1.91-5.52-3.59-1.68-1.68-2.72-3.28-3.59-5.52-.66-1.69-1.44-4.23-1.65-8.91-.23-5.06-.28-6.58-.28-19.4s.05-14.33.28-19.39c.21-4.68,1-7.22,1.65-8.91.87-2.24,1.91-3.84,3.59-5.52,1.68-1.68,3.28-2.72,5.52-3.59,1.69-.66,4.23-1.44,8.91-1.66,4.43-.2,6.14-.26,15.09-.27h0Zm29.93,7.97c-3.18,0-5.76,2.58-5.76,5.76s2.58,5.76,5.76,5.76,5.76-2.58,5.76-5.76-2.58-5.76-5.76-5.76h0Zm-25.62,6.73c-13.61,0-24.65,11.04-24.65,24.65s11.04,24.65,24.65,24.65c13.61,0,24.65-11.03,24.65-24.65s-11.03-24.65-24.65-24.65h0Zm0,8.65c8.84,0,16,7.16,16,16s-7.16,16-16,16-16-7.16-16-16,7.16-16,16-16Z"/>
    </g>
    <g>
      <circle class="cls-9" cx="229.61" cy="65.36" r="65"/>
      <path class="cls-12" d="m254.91,84.16l2.88-18.79h-18.03v-12.19c0-5.14,2.51-10.16,10.59-10.16h8.2v-16s-7.44-1.27-14.55-1.27c-14.84,0-24.55,8.99-24.55,25.29v14.32h-16.51v18.79h16.51v45.42c3.31.52,6.7.79,10.16.79s6.85-.27,10.16-.79v-45.42h15.15Z"/>
    </g>
    <g>
      <g class="cls-1">
        <path class="cls-14" d="m323.27,103.7V26.67l50.37,38.52-50.37,38.52Z"/>
      </g>
      <g class="cls-17">
        <path class="cls-15" d="m323.27,26.67l50.37,38.52,20.74-18.07,71.11-11.55V-5.93h-142.21V26.67Z"/>
      </g>
      <g class="cls-19">
        <path class="cls-10" d="m323.27,103.7l88.88-68.14,23.41,2.96,29.92-44.44v142.21h-142.21v-32.59Z"/>
      </g>
      <g class="cls-18">
        <path class="cls-11" d="m465.48,136.29l-91.85-71.11-11.85-8.89,103.7-29.63v109.62Z"/>
      </g>
    </g>
    <g id="g62">
      <path id="path64" class="cls-13" d="m1103.15.09c-35.94,0-65.3,29.08-65.3,65.3,0,27.71,17.28,51.3,41.43,60.63-.55-5.21-1.1-13.17.27-18.66,1.1-5.21,7.68-32.37,7.68-32.37,0,0-1.92-3.84-1.92-9.6,0-9.05,5.21-15.91,11.8-15.91,5.49,0,8.23,4.12,8.23,9.05,0,5.49-3.57,13.99-5.49,21.67-1.65,6.58,3.29,11.8,9.6,11.8,11.52,0,20.58-12.35,20.58-29.9,0-15.64-11.25-26.61-27.16-26.61-18.66,0-29.36,13.99-29.36,28.26,0,5.49,2.19,11.52,4.94,14.82.55.55.55,1.1.55,1.92-.55,2.19-1.65,6.58-1.92,7.41-.27,1.1-.82,1.37-2.19.82-8.23-3.84-13.17-15.64-13.17-25.24,0-20.58,14.82-39.51,43.07-39.51,22.5,0,40.06,16.19,40.06,37.59,0,22.5-14.27,40.6-33.75,40.6-6.58,0-12.89-3.57-14.82-7.41,0,0-3.29,12.35-4.12,15.36-1.37,5.76-5.49,12.62-8.23,17.01,6.04,1.92,12.62,3.02,19.21,3.02,35.94,0,65.3-29.08,65.3-65.3-.27-35.67-29.36-64.75-65.3-64.75"/>
    </g>
    <path id="path2" class="cls-16" d="m803.3.36c2.5,18.45,14.51,29.45,35.38,30.62v20.75c-12.1,1.01-22.69-2.38-35.02-8.78v38.81c0,49.3-62.67,64.7-87.87,29.37-16.19-22.74-6.28-62.64,45.66-64.24v21.88c-3.96.55-8.19,1.4-12.05,2.54-11.55,3.35-18.1,9.63-16.28,20.71,3.5,21.22,48.89,27.5,45.12-13.96V.4h25.06v-.04Z"/>
    <path class="cls-7" d="m1279.49,55.24L1327.32.8h-11.33l-41.54,47.26L1241.29.8h-38.25l50.15,71.47-50.15,57.09h11.33l43.85-49.92,35.02,49.92h38.25l-51.99-74.12Zm-15.53,17.66l-5.09-7.12-40.43-56.61h17.41l32.64,45.71,5.07,7.12,42.42,59.41h-17.41l-34.61-48.5Z"/>
    <g>
      <path class="cls-8" d="m986.8,130.36h-97.07c-9.1,0-16.47-7.37-16.47-16.47V16.83c0-9.1,7.37-16.47,16.47-16.47h97.07c9.1,0,16.47,7.37,16.47,16.47v97.07c0,9.1-7.37,16.47-16.47,16.47Z"/>
      <path id="path4" class="cls-12" d="m984.2,46.3c-.43,9.1-6.5,21.23-19.07,37.27-12.57,16.47-23.4,24.7-32.07,24.7-5.2,0-9.97-5.2-13.87-15.17-1.73-9.53-4.33-18.63-6.93-27.73-2.6-9.97-5.63-15.17-9.1-15.17-.87,0-3.03,1.3-7.37,4.33l-4.33-5.63c4.77-3.9,9.1-8.23,13.43-12.13,6.07-5.2,10.83-8.23,13.87-8.23,7.37-.87,11.7,4.33,13.43,14.73,1.73,11.27,3.03,18.63,3.9,21.23,2.17,9.53,4.33,14.3,6.93,14.3,1.73,0,4.77-3.03,8.67-9.1,3.9-6.07,6.07-10.83,6.07-13.87.43-5.2-1.73-7.8-6.07-7.8-2.17,0-4.33.43-6.93,1.73,4.77-14.73,13.43-22.1,26-21.67,9.53-.43,14.3,6.07,13.43,18.2"/>
    </g>
    <g>
      <path id="Triangle" class="cls-12" d="m563.75,88.42l49.43-25.61-49.43-25.79v51.4Z"/>
      <path id="The_Sharpness" data-name="The Sharpness" class="cls-5" d="m563.75,37.02l43.34,28.94,6.09-3.15-49.43-25.79Z"/>
      <g id="Lozenge">
        <path class="cls-3" d="m672.27,28.12s-1.79-12.61-7.27-18.16c-6.95-7.29-14.76-7.32-18.32-7.75-25.61-1.84-64.01-1.84-64.01-1.84h-.07s-38.4,0-64.01,1.84c-3.56.43-11.37.47-18.32,7.75-5.48,5.55-7.27,18.16-7.27,18.16,0,0-1.83,14.79-1.83,29.6v13.88c0,14.81,1.83,29.6,1.83,29.6,0,0,1.79,12.61,7.27,18.16,6.97,7.29,16.1,7.06,20.17,7.83,14.63,1.4,62.2,1.84,62.2,1.84,0,0,38.43-.05,64.04-1.92,3.58-.43,11.37-.47,18.32-7.75,5.48-5.55,7.27-18.16,7.27-18.16,0,0,1.83-14.81,1.83-29.6v-13.88c0-14.81-1.83-29.6-1.83-29.6Zm-108.53,60.3v-51.4l49.43,25.79-49.43,25.61Z"/>
      </g>
    </g>
  </g>
</svg>